<svg width="40" height="40" viewBox="0 0 40 40" fill="none" xmlns="http://www.w3.org/2000/svg">
<rect width="40" height="40" rx="20" fill="#BEC7E0" style="mix-blend-mode:overlay"/>
<path d="M14.0607 25.9408C13.9461 25.8301 13.8547 25.6977 13.7918 25.5513C13.7289 25.4049 13.6958 25.2474 13.6944 25.0881C13.693 24.9287 13.7234 24.7707 13.7837 24.6232C13.844 24.4758 13.9331 24.3418 14.0458 24.2291C14.1585 24.1164 14.2925 24.0273 14.4399 23.967C14.5874 23.9067 14.7454 23.8763 14.9048 23.8777C15.0641 23.8791 15.2216 23.9122 15.368 23.9751C15.5144 24.0379 15.6468 24.1294 15.7575 24.244C16.5966 25.0833 17.6658 25.6549 18.8298 25.8866C19.9939 26.1182 21.2004 25.9993 22.2969 25.5451C23.3934 25.0909 24.3306 24.3217 24.9899 23.3348C25.6491 22.3479 26.0009 21.1876 26.0007 20.0008C26.0007 19.6825 26.1271 19.3773 26.3522 19.1523C26.5772 18.9272 26.8824 18.8008 27.2007 18.8008C27.5189 18.8008 27.8242 18.9272 28.0492 19.1523C28.2743 19.3773 28.4007 19.6825 28.4007 20.0008C28.4008 21.6622 27.9082 23.2864 26.9852 24.6679C26.0622 26.0494 24.7503 27.1261 23.2153 27.7619C21.6803 28.3978 19.9913 28.5641 18.3618 28.2399C16.7322 27.9158 15.2354 27.1157 14.0607 25.9408Z" fill="black"/>
<path d="M24.2714 23.3954C24.1403 23.4829 23.9933 23.5437 23.8387 23.5743C23.6841 23.6049 23.5249 23.6048 23.3704 23.5739C23.2158 23.5431 23.0689 23.4821 22.9379 23.3944C22.8069 23.3067 22.6945 23.1941 22.607 23.063C22.4304 22.7982 22.3662 22.4741 22.4285 22.162C22.4909 21.8498 22.6746 21.5753 22.9394 21.3986L26.5394 18.9986C26.6705 18.9112 26.8176 18.8504 26.9722 18.8198C27.1268 18.7891 27.2859 18.7892 27.4405 18.8201C27.595 18.851 27.742 18.912 27.873 18.9996C28.0039 19.0873 28.1164 19.1999 28.2038 19.331C28.2913 19.4621 28.3521 19.6092 28.3827 19.7638C28.4133 19.9184 28.4132 20.0775 28.3823 20.2321C28.3515 20.3866 28.2905 20.5336 28.2028 20.6646C28.1151 20.7955 28.0025 20.908 27.8714 20.9954L24.2714 23.3954Z" fill="black"/>
<path d="M30.6 22.9328C30.7766 23.1976 30.8408 23.5217 30.7785 23.8338C30.7162 24.146 30.5324 24.4206 30.2676 24.5972C30.0028 24.7738 29.6787 24.838 29.3665 24.7757C29.0544 24.7134 28.7798 24.5296 28.6032 24.2648L26.2032 20.6648C26.1157 20.5337 26.055 20.3866 26.0243 20.232C25.9937 20.0774 25.9938 19.9183 26.0247 19.7637C26.087 19.4516 26.2708 19.177 26.5356 19.0004C26.8004 18.8238 27.1245 18.7595 27.4366 18.8219C27.7488 18.8842 28.0234 19.068 28.2 19.3328L30.6 22.9328ZM25.83 13.82C25.9446 13.9307 26.036 14.0631 26.0989 14.2095C26.1618 14.3559 26.1949 14.5134 26.1963 14.6727C26.1977 14.832 26.1673 14.9901 26.107 15.1375C26.0466 15.285 25.9575 15.419 25.8449 15.5317C25.7322 15.6443 25.5982 15.7334 25.4507 15.7938C25.3033 15.8541 25.1452 15.8845 24.9859 15.8831C24.8266 15.8817 24.6691 15.8486 24.5227 15.7857C24.3763 15.7228 24.2439 15.6314 24.1332 15.5168C23.2941 14.6774 22.2249 14.1058 21.0608 13.8742C19.8968 13.6426 18.6902 13.7614 17.5937 14.2157C16.4972 14.6699 15.5601 15.4391 14.9008 16.426C14.2415 17.4129 13.8898 18.5731 13.89 19.76C13.89 20.0782 13.7636 20.3835 13.5385 20.6085C13.3135 20.8336 13.0083 20.96 12.69 20.96C12.3717 20.96 12.0665 20.8336 11.8415 20.6085C11.6164 20.3835 11.49 20.0782 11.49 19.76C11.4899 18.0985 11.9825 16.4744 12.9055 15.0929C13.8284 13.7114 15.1404 12.6347 16.6754 11.9988C18.2103 11.363 19.8994 11.1966 21.5289 11.5208C23.1584 11.845 24.6552 12.6451 25.83 13.82Z" fill="black"/>
<path d="M15.6202 16.3619C15.885 16.1853 16.2091 16.1211 16.5213 16.1834C16.8334 16.2457 17.108 16.4295 17.2846 16.6943C17.4613 16.9591 17.5255 17.2832 17.4631 17.5954C17.4008 17.9075 17.217 18.1821 16.9522 18.3587L13.351 20.7587C13.2199 20.8462 13.0729 20.907 12.9183 20.9376C12.7636 20.9682 12.6045 20.9681 12.45 20.9372C12.2954 20.9064 12.1485 20.8453 12.0175 20.7577C11.8865 20.67 11.7741 20.5574 11.6866 20.4263C11.51 20.1615 11.4458 19.8374 11.5081 19.5253C11.5704 19.2131 11.7542 18.9385 12.019 18.7619L15.6202 16.3619Z" fill="black"/>
<path d="M9.29159 16.8271C9.20413 16.696 9.14335 16.5489 9.11272 16.3943C9.0821 16.2397 9.08222 16.0806 9.11308 15.926C9.14395 15.7715 9.20496 15.6245 9.29262 15.4936C9.38028 15.3626 9.49288 15.2501 9.62399 15.1627C9.7551 15.0752 9.90216 15.0144 10.0568 14.9838C10.2114 14.9532 10.3705 14.9533 10.525 14.9842C10.6796 15.015 10.8266 15.0761 10.9575 15.1637C11.0885 15.2514 11.2009 15.364 11.2884 15.4951L13.6884 19.0951C13.7759 19.2262 13.8366 19.3733 13.8673 19.5279C13.8979 19.6825 13.8978 19.8416 13.8669 19.9961C13.836 20.1507 13.775 20.2976 13.6874 20.4286C13.5997 20.5596 13.4871 20.672 13.356 20.7595C13.2249 20.8469 13.0778 20.9077 12.9232 20.9384C12.7686 20.969 12.6095 20.9689 12.455 20.938C12.3004 20.9071 12.1534 20.8461 12.0225 20.7585C11.8915 20.6708 11.7791 20.5582 11.6916 20.4271L9.29159 16.8271Z" fill="black"/>
</svg>
