<svg width="61" height="64" viewBox="0 0 61 64" fill="none" xmlns="http://www.w3.org/2000/svg">
<rect width="61" height="64" rx="30.5" fill="white"/>
<path d="M24.5 31C24.5 28.172 24.5 26.757 25.379 25.879C26.257 25 27.672 25 30.5 25H33.5C36.328 25 37.743 25 38.621 25.879C39.5 26.757 39.5 28.172 39.5 31V36C39.5 38.828 39.5 40.243 38.621 41.121C37.743 42 36.328 42 33.5 42H30.5C27.672 42 26.257 42 25.379 41.121C24.5 40.243 24.5 38.828 24.5 36V31Z" stroke="#48545F" stroke-width="2"/>
<path d="M24.5 39C23.7044 39 22.9413 38.6839 22.3787 38.1213C21.8161 37.5587 21.5 36.7956 21.5 36V30C21.5 26.229 21.5 24.343 22.672 23.172C23.844 22.001 25.729 22 29.5 22H33.5C34.2956 22 35.0587 22.3161 35.6213 22.8787C36.1839 23.4413 36.5 24.2044 36.5 25" stroke="#48545F" stroke-width="2"/>
</svg>
