<svg width="33" height="32" viewBox="0 0 33 32" fill="none" xmlns="http://www.w3.org/2000/svg">
<path d="M24.4392 11.6925C24.3989 11.5955 24.3399 11.5075 24.2656 11.4333L21.8656 9.03329C21.7918 8.95688 21.7035 8.89594 21.6059 8.85401C21.5083 8.81208 21.4033 8.79002 21.2971 8.78909C21.1909 8.78817 21.0856 8.80841 20.9872 8.84864C20.8889 8.88886 20.7996 8.94826 20.7245 9.02338C20.6494 9.09849 20.59 9.18781 20.5497 9.28613C20.5095 9.38445 20.4893 9.48979 20.4902 9.59601C20.4911 9.70224 20.5132 9.80721 20.5551 9.90482C20.597 10.0024 20.658 10.0907 20.7344 10.1645L21.7688 11.1989H19.112C18.4212 11.1989 17.7421 11.3778 17.1409 11.7182C16.5397 12.0586 16.037 12.5489 15.6816 13.1413L12.7456 18.0333C12.5325 18.3886 12.2311 18.6827 11.8707 18.8869C11.5102 19.0912 11.1031 19.1987 10.6888 19.1989H9.3C9.08783 19.1989 8.88434 19.2832 8.73431 19.4332C8.58429 19.5832 8.5 19.7867 8.5 19.9989C8.5 20.2111 8.58429 20.4146 8.73431 20.5646C8.88434 20.7146 9.08783 20.7989 9.3 20.7989H10.688C11.3789 20.7989 12.0579 20.62 12.6591 20.2796C13.2603 19.9392 13.763 19.4489 14.1184 18.8565L17.0544 13.9645C17.2675 13.6092 17.5689 13.3151 17.9293 13.1109C18.2898 12.9066 18.6969 12.7991 19.1112 12.7989H21.7672L20.7336 13.8333C20.5879 13.9842 20.5072 14.1863 20.5091 14.396C20.5109 14.6058 20.595 14.8064 20.7433 14.9547C20.8917 15.1031 21.0923 15.1872 21.3021 15.189C21.5118 15.1909 21.7139 15.1102 21.8648 14.9645L24.2648 12.5645C24.3392 12.4903 24.3983 12.4021 24.4387 12.3051C24.479 12.208 24.4999 12.104 24.5 11.9989M24.4392 11.6925C24.4791 11.7889 24.4998 11.8922 24.5 11.9965L24.4392 11.6925Z" fill="#080808"/>
<path d="M24.2648 20.5656L21.8656 22.9656C21.7155 23.1156 21.5119 23.1999 21.2997 23.1998C21.0875 23.1997 20.884 23.1153 20.734 22.9652C20.584 22.8151 20.4998 22.6116 20.4998 22.3993C20.4999 22.1871 20.5843 21.9836 20.7344 21.8336L21.7688 20.7992H19.112C18.4212 20.7993 17.7421 20.6204 17.1409 20.28C16.5397 19.9396 16.037 19.4493 15.6816 18.8568L12.7456 13.9648C12.5325 13.6095 12.2311 13.3155 11.8707 13.1112C11.5102 12.9069 11.1031 12.7995 10.6888 12.7992H9.3C9.08783 12.7992 8.88434 12.7149 8.73431 12.5649C8.58429 12.4149 8.5 12.2114 8.5 11.9992C8.5 11.787 8.58429 11.5836 8.73431 11.4335C8.88434 11.2835 9.08783 11.1992 9.3 11.1992H10.688C11.3789 11.1992 12.0579 11.3781 12.6591 11.7185C13.2603 12.0589 13.763 12.5492 14.1184 13.1416L17.0544 18.0336C17.2675 18.3889 17.5689 18.683 17.9293 18.8872C18.2898 19.0915 18.6969 19.199 19.1112 19.1992H21.7672L20.7336 18.1648C20.5879 18.0139 20.5072 17.8119 20.5091 17.6021C20.5109 17.3923 20.595 17.1917 20.7433 17.0434C20.8917 16.895 21.0923 16.8109 21.3021 16.8091C21.5118 16.8073 21.7139 16.8879 21.8648 17.0336L24.2648 19.4336C24.4208 19.5888 24.4984 19.7936 24.4992 19.9968V19.9992C24.4992 20.1045 24.4784 20.2087 24.438 20.3059C24.3977 20.403 24.3393 20.4913 24.2648 20.5656Z" fill="#080808"/>
</svg>
